<svg xmlns="http://www.w3.org/2000/svg" xmlns:xlink="http://www.w3.org/1999/xlink" width="2000" zoomAndPan="magnify" viewBox="0 0 1500 1499.999933" height="2000" preserveAspectRatio="xMidYMid meet" version="1.0"><path fill="#f39200" d="M 796.9375 978.851562 C 821.695312 984.039062 838.757812 968.3125 822.363281 946.0625 C 807.808594 926.320312 779.371094 914.613281 757.957031 904.070312 C 711.28125 880.984375 653.566406 854.886719 639.683594 799.179688 C 727.175781 867.433594 832.738281 912.101562 942.480469 927.828125 C 970.417969 904.40625 841.601562 855.558594 828.050781 849.535156 C 776.023438 826.785156 719.480469 794.664062 700.242188 737.449219 C 764.480469 789.644531 840.765625 826.785156 921.570312 845.019531 C 915.042969 800.6875 859 781.28125 827.214844 758.359375 C 789.074219 730.925781 755.613281 696.796875 729.015625 657.984375 C 770.671875 680.402344 812.328125 702.820312 853.984375 725.238281 C 856.660156 675.050781 793.589844 652.296875 764.148438 622.519531 C 728.179688 586.386719 751.765625 543.558594 788.238281 519.636719 C 864.6875 469.449219 974.933594 474.46875 1051.554688 520.972656 C 1139.714844 574.507812 1186.558594 678.0625 1173.175781 779.441406 C 1166.652344 828.792969 1148.414062 875.96875 1126.167969 920.132812 C 1101.910156 968.480469 1073.132812 1015.824219 1036.164062 1055.472656 C 894.132812 1207.707031 649.550781 1160.195312 494.136719 1053.296875 C 400.957031 989.222656 366.160156 879.480469 350.9375 772.246094 C 337.886719 680.402344 341.734375 586.386719 361.308594 495.878906 C 380.882812 405.375 416.179688 318.050781 466.035156 239.925781 C 478.582031 220.351562 495.140625 202.453125 506.351562 182.207031 C 521.574219 154.4375 484.433594 156.78125 468.375 163.640625 C 420.53125 184.050781 404.972656 240.761719 383.058594 282.917969 C 371.847656 304.667969 357.628906 325.578125 336.382812 338.625 C 328.6875 319.222656 332.703125 297.640625 335.714844 277.730469 C 339.394531 252.804688 343.074219 227.710938 346.585938 202.785156 C 353.949219 152.765625 361.140625 102.746094 368.503906 52.890625 C 321.996094 70.625 307.273438 126 301.082031 170.164062 C 294.894531 214.328125 292.21875 264.515625 259.761719 298.644531 C 223.960938 220.183594 296.566406 128.507812 275.320312 45.03125 C 198.199219 103.75 231.15625 218.175781 203.71875 298.476562 C 156.542969 222.191406 213.757812 118.304688 181.46875 34.65625 C 161.226562 27.964844 148.347656 50.550781 146.171875 67.113281 C 142.992188 90.53125 146.671875 115.960938 147.675781 139.382812 C 149.519531 192.078125 151.523438 244.941406 153.367188 297.640625 C 117.398438 253.308594 106.523438 194.253906 96.988281 137.875 C 78.585938 138.714844 68.382812 158.957031 68.546875 175.351562 C 68.714844 196.09375 81.09375 215.164062 88.289062 234.070312 C 102.007812 270.035156 107.027344 308.679688 107.359375 346.992188 C 108.027344 426.789062 89.960938 505.25 83.9375 584.546875 C 71.390625 750.832031 95.316406 924.816406 179.964844 1070.695312 C 335.210938 1338.695312 687.191406 1464.5 978.949219 1365.128906 C 1070.125 1334.011719 1148.082031 1277.96875 1219.179688 1214.230469 C 1283.585938 1156.515625 1347.492188 1093.949219 1383.460938 1013.816406 C 1448.203125 869.441406 1421.601562 698.636719 1367.234375 555.605469 C 1332.4375 463.761719 1280.578125 381.789062 1216.335938 307.84375 C 1160.964844 244.273438 1098.898438 181.875 1020.101562 148.417969 C 889.28125 93.042969 730.855469 116.796875 617.765625 200.277344 C 501.164062 286.429688 439.9375 433.3125 442.277344 576.347656 C 443.617188 653.300781 462.351562 730.757812 505.179688 795.332031 C 548.507812 860.578125 612.582031 909.925781 683.511719 942.046875 C 719.648438 958.609375 757.957031 970.820312 796.9375 978.851562 Z M 796.9375 978.851562 " fill-opacity="1" fill-rule="nonzero"/><path fill="#e6007e" d="M 343.910156 630.382812 C 345.917969 585.382812 351.605469 540.378906 361.140625 496.382812 C 380.714844 405.878906 416.011719 318.550781 465.867188 240.425781 C 478.414062 220.851562 494.976562 202.953125 506.183594 182.710938 C 521.40625 154.941406 484.269531 157.28125 468.207031 164.140625 C 420.363281 184.550781 404.804688 241.261719 382.890625 283.421875 C 371.679688 305.167969 357.460938 326.078125 336.214844 339.128906 C 328.519531 319.722656 332.535156 298.140625 335.546875 278.234375 C 339.226562 253.308594 342.90625 228.214844 346.417969 203.289062 C 353.78125 153.265625 360.972656 103.246094 368.335938 53.394531 C 321.828125 71.128906 307.105469 126.5 300.917969 170.664062 C 294.726562 214.832031 292.050781 265.019531 259.59375 299.144531 C 226.972656 227.710938 284.355469 145.238281 278.667969 67.78125 C 277.664062 69.957031 276.660156 72.296875 275.65625 74.472656 C 195.1875 258.660156 228.144531 466.101562 343.910156 630.382812 Z M 343.910156 630.382812 " fill-opacity="1" fill-rule="nonzero"/><path fill="#36a9e1" d="M 1366.730469 555.9375 C 1331.933594 464.09375 1280.074219 382.121094 1215.835938 308.179688 C 1160.460938 244.609375 1098.394531 182.207031 1019.601562 148.75 C 889.28125 93.042969 730.855469 116.796875 617.765625 200.277344 C 501.164062 286.429688 439.9375 433.3125 442.277344 576.347656 C 443.449219 650.792969 461.183594 725.738281 501.164062 789.144531 C 541.816406 818.585938 586.316406 844.183594 634.496094 865.09375 C 677.65625 883.828125 721.320312 897.882812 765.316406 907.753906 C 762.808594 906.582031 760.300781 905.410156 757.957031 904.238281 C 711.28125 881.152344 653.566406 855.054688 639.683594 799.347656 C 720.984375 862.75 818.015625 905.914062 919.5625 924.148438 C 928.425781 924.148438 937.125 923.8125 945.824219 923.476562 C 955.527344 898.71875 840.765625 855.222656 828.050781 849.703125 C 776.023438 826.949219 719.480469 794.832031 700.242188 737.617188 C 764.480469 789.8125 840.765625 826.949219 921.570312 845.183594 C 915.042969 800.851562 859 781.449219 827.214844 758.527344 C 789.074219 731.09375 755.613281 696.964844 729.015625 658.152344 C 770.671875 680.570312 812.328125 702.988281 853.984375 725.40625 C 856.660156 675.21875 793.589844 652.464844 764.148438 622.6875 C 728.179688 586.550781 751.765625 543.726562 788.238281 519.804688 C 864.6875 469.617188 974.933594 474.632812 1051.554688 521.140625 C 1139.714844 574.675781 1186.558594 678.226562 1173.175781 779.605469 C 1168.492188 815.242188 1157.617188 849.703125 1143.730469 882.660156 C 1248.957031 842.675781 1340.464844 774.921875 1405.042969 683.582031 C 1395.339844 639.75 1382.121094 596.757812 1366.730469 555.9375 Z M 1366.730469 555.9375 " fill-opacity="1" fill-rule="nonzero"/><path fill="#662483" d="M 962.890625 397.511719 C 786.898438 320.894531 590.664062 355.1875 452.148438 469.617188 C 444.953125 504.746094 441.609375 540.546875 442.109375 576.179688 C 443.449219 653.132812 462.1875 730.589844 505.011719 795.164062 C 548.339844 860.410156 612.414062 909.761719 683.34375 941.878906 C 719.648438 958.441406 757.957031 970.652344 796.9375 978.683594 C 821.695312 983.871094 838.757812 968.144531 822.363281 945.894531 C 807.808594 926.15625 779.371094 914.445312 757.957031 903.90625 C 711.28125 880.820312 653.566406 854.722656 639.683594 799.011719 C 727.175781 867.269531 832.738281 911.933594 942.480469 927.660156 C 970.417969 904.238281 841.601562 855.390625 828.050781 849.367188 C 776.023438 826.617188 719.480469 794.496094 700.242188 737.28125 C 764.480469 789.476562 840.765625 826.617188 921.570312 844.851562 C 915.042969 800.519531 859 781.113281 827.214844 758.195312 C 789.074219 730.757812 755.613281 696.628906 729.015625 657.820312 C 770.671875 680.234375 812.328125 702.652344 853.984375 725.070312 C 856.660156 674.882812 793.589844 652.132812 764.148438 622.351562 C 728.179688 586.21875 751.765625 543.390625 788.238281 519.46875 C 864.6875 469.28125 974.933594 474.300781 1051.554688 520.808594 C 1139.714844 574.339844 1186.558594 677.894531 1173.175781 779.273438 C 1166.652344 828.625 1148.414062 875.800781 1126.167969 919.964844 C 1101.910156 968.3125 1073.132812 1015.65625 1036.164062 1055.304688 C 894.132812 1207.539062 649.550781 1160.027344 494.136719 1053.128906 C 400.957031 989.054688 366.160156 879.3125 350.9375 772.078125 C 342.40625 712.1875 341.066406 651.292969 346.585938 591.070312 C 334.875 610.308594 324.335938 630.550781 314.96875 651.628906 C 206.398438 900.894531 320.488281 1191.144531 569.753906 1299.71875 C 819.019531 1408.289062 1109.269531 1294.195312 1217.84375 1044.933594 C 1326.414062 795.667969 1212.320312 506.085938 962.890625 397.511719 Z M 962.890625 397.511719 " fill-opacity="1" fill-rule="nonzero"/></svg>